<svg width="227" height="228" viewBox="0 0 227 228" fill="none" xmlns="http://www.w3.org/2000/svg">
<path d="M97.3433 136.282L97.3463 136.282L129.655 136.282H129.657C135.073 136.288 140.221 138.668 143.984 142.822C147.741 146.97 149.824 152.556 149.827 158.344L149.827 158.346V191.776C149.827 194.542 151.835 196.459 153.889 196.459H186.193C187.202 196.457 188.214 196.015 188.994 195.155C189.779 194.288 190.251 193.075 190.253 191.772V104.319V104.316C190.254 103.612 190.116 102.921 189.855 102.292C189.594 101.664 189.219 101.122 188.767 100.694C188.767 100.694 188.767 100.694 188.767 100.694L116.07 31.9267L116.061 31.9183C115.32 31.2086 114.409 30.8486 113.5 30.8486C112.592 30.8486 111.681 31.2086 110.94 31.9183L110.931 31.9267L38.24 100.687L38.237 100.69C37.7847 101.116 37.4088 101.658 37.147 102.286C36.8851 102.914 36.7471 103.605 36.748 104.309L36.7481 104.312L36.748 191.767C36.7508 193.069 37.2223 194.282 38.0074 195.148C38.7857 196.007 39.796 196.449 40.8035 196.452C40.805 196.452 40.8065 196.452 40.808 196.452M97.3433 136.282L40.8035 198.452L40.808 196.452M97.3433 136.282C91.9279 136.29 86.7815 138.67 83.019 142.824C79.2624 146.972 77.179 152.556 77.1736 158.344V158.346M97.3433 136.282L77.1736 158.346M40.808 196.452H73.1136M40.808 196.452H73.1136M73.1136 196.452L73.1181 196.452L73.1136 196.452ZM77.1736 158.346L77.1736 191.765L77.1736 158.346ZM184.197 213.833H153.889H153.887C148.472 213.827 143.325 211.448 139.562 207.295C135.805 203.149 133.722 197.565 133.716 191.778V191.776V158.346C133.716 157.041 133.245 155.824 132.459 154.955C131.678 154.092 130.663 153.65 129.652 153.649H97.3508C96.3405 153.651 95.327 154.094 94.5471 154.956C93.7614 155.825 93.2908 157.041 93.2908 158.346V191.776V191.778C93.2837 197.565 91.1995 203.147 87.443 207.293C83.6807 211.446 78.5354 213.825 73.1211 213.833L73.1181 213.833H40.8035H40.8005C35.3863 213.825 30.241 211.446 26.4786 207.293C22.7222 203.147 20.638 197.565 20.6309 191.778L20.6309 191.776L20.6309 104.319C20.6309 97.9398 23.1485 91.848 27.6016 87.6277L27.6031 87.6263L100.293 18.8793C100.294 18.8781 100.296 18.8769 100.297 18.8757C103.935 15.4033 108.621 13.4619 113.504 13.4619C118.387 13.4619 123.073 15.4036 126.711 18.8765C126.712 18.8774 126.713 18.8783 126.714 18.8793L199.404 87.6401L199.405 87.6405C201.606 89.7243 203.36 92.2968 204.558 95.1743C205.756 98.0515 206.372 101.173 206.37 104.326M184.197 213.833L206.37 104.326M184.197 213.833V213.842L186.2 213.84C191.615 213.834 196.761 211.455 200.524 207.302C204.281 203.156 206.365 197.572 206.37 191.785V191.783V104.326M184.197 213.833L206.37 104.326M192.253 191.776V104.319C192.254 103.354 192.066 102.401 191.702 101.524C191.337 100.648 190.805 99.8689 190.142 99.2411L192.253 191.776Z" fill="#C84ECE" stroke="#C84ECE" stroke-width="4"/>
</svg>
