<svg width="227" height="228" viewBox="0 0 227 228" fill="none" xmlns="http://www.w3.org/2000/svg">
<path d="M197.077 114.465C197.077 160.624 159.659 198.042 113.5 198.042C67.3422 198.042 29.9235 160.624 29.9235 114.465C29.9235 68.307 67.3422 30.8883 113.5 30.8883C159.659 30.8883 197.077 68.307 197.077 114.465Z" stroke="#C84ECE" stroke-width="15.2689" stroke-miterlimit="10" stroke-linejoin="round"/>
<mask id="path-2-inside-1_1630_1622" fill="white">
<path d="M174.309 181.354C174.309 147.77 147.085 120.547 113.501 120.547C79.9169 120.547 52.6934 147.77 52.6934 181.354"/>
</mask>
<path d="M189.577 181.354C189.577 139.338 155.518 105.278 113.501 105.278V135.816C138.652 135.816 159.04 156.203 159.04 181.354H189.577ZM113.501 105.278C71.4842 105.278 37.4245 139.338 37.4245 181.354H67.9622C67.9622 156.203 88.3497 135.816 113.501 135.816V105.278Z" fill="#C84ECE" mask="url(#path-2-inside-1_1630_1622)"/>
<path d="M142.349 89.425C142.349 105.358 129.433 118.275 113.499 118.275C97.5657 118.275 84.6491 105.358 84.6491 89.425C84.6491 73.4915 97.5657 60.5749 113.499 60.5749C129.433 60.5749 142.349 73.4915 142.349 89.425Z" stroke="#C84ECE" stroke-width="15.2689" stroke-miterlimit="10" stroke-linejoin="round"/>
</svg>
