<svg width="227" height="228" viewBox="0 0 227 228" fill="none" xmlns="http://www.w3.org/2000/svg">
<path d="M166.707 122.065V106.863C166.707 104.805 165.955 103.023 164.451 101.519C162.946 100.015 161.165 99.2625 159.106 99.2625H67.8948C65.8362 99.2625 64.0547 100.015 62.5504 101.519C61.046 103.023 60.2938 104.805 60.2938 106.863V122.065C60.2938 124.124 61.046 125.905 62.5504 127.41C64.0547 128.914 65.8362 129.666 67.8948 129.666H159.106C161.165 129.666 162.946 128.914 164.451 127.41C165.955 125.905 166.707 124.124 166.707 122.065ZM204.712 114.464C204.712 131.012 200.634 146.274 192.479 160.248C184.324 174.223 173.259 185.288 159.284 193.443C145.31 201.598 130.048 205.676 113.5 205.676C96.9526 205.676 81.6913 201.598 67.7166 193.443C53.742 185.288 42.677 174.223 34.5218 160.248C26.3667 146.274 22.2891 131.012 22.2891 114.464C22.2891 97.9164 26.3667 82.6552 34.5218 68.6805C42.677 54.7058 53.742 43.6409 67.7166 35.4857C81.6913 27.3305 96.9526 23.2529 113.5 23.2529C130.048 23.2529 145.31 27.3305 159.284 35.4857C173.259 43.6409 184.324 54.7058 192.479 68.6805C200.634 82.6552 204.712 97.9164 204.712 114.464Z" fill="#C84ECE"/>
</svg>
