<svg width="227" height="228" viewBox="0 0 227 228" fill="none" xmlns="http://www.w3.org/2000/svg">
<path d="M184.697 213.333H153.889H153.887C148.622 213.327 143.607 211.014 139.933 206.959C136.263 202.91 134.222 197.447 134.216 191.777V191.776V158.346C134.216 156.923 133.703 155.585 132.829 154.619C131.96 153.658 130.813 153.15 129.653 153.149H97.3497C96.1901 153.151 95.045 153.66 94.1763 154.621C93.3031 155.587 92.7908 156.924 92.7908 158.346V191.776V191.778C92.7838 197.447 90.7415 202.908 87.0725 206.957C83.3991 211.012 78.3855 213.325 73.1204 213.333L73.1181 213.333H40.8035H40.8013C35.5362 213.325 30.5226 211.012 26.8492 206.957C23.1802 202.908 21.1378 197.447 21.1309 191.778L21.1309 191.776L21.1309 104.319C21.1309 98.0686 23.598 92.1108 27.9456 87.9907L27.9467 87.9896L100.638 19.2409C100.639 19.2401 100.64 19.2392 100.641 19.2384C104.191 15.8497 108.755 13.9619 113.504 13.9619C118.252 13.9619 122.816 15.8498 126.366 19.2386C126.367 19.2393 126.368 19.2401 126.369 19.2409L199.061 88.0034L199.061 88.0037C201.21 90.0374 202.924 92.551 204.096 95.3664C205.268 98.1816 205.872 101.238 205.87 104.326M184.697 213.333L205.87 104.326M184.697 213.333V213.341L186.199 213.34C191.465 213.334 196.48 211.021 200.154 206.966C203.823 202.916 205.865 197.454 205.87 191.784V191.783V104.326M184.697 213.333L205.87 104.326M97.3463 136.782L97.3441 136.782C92.0778 136.79 87.0632 139.104 83.3896 143.16C79.7204 147.211 77.6789 152.674 77.6736 158.344V158.346L77.6736 191.766C77.6736 191.767 77.6736 191.768 77.6736 191.768C77.6705 193.187 77.1572 194.521 76.2848 195.484C75.4164 196.442 74.2728 196.95 73.1147 196.952H40.8069C39.6489 196.95 38.5052 196.442 37.6369 195.484C36.7643 194.521 36.2509 193.187 36.248 191.767L36.2481 104.312L36.248 104.31C36.247 103.54 36.3977 102.784 36.6855 102.093C36.9733 101.403 37.3886 100.802 37.8942 100.326L37.8964 100.324L110.587 31.5635L110.594 31.5571C111.423 30.7628 112.457 30.3486 113.5 30.3486C114.544 30.3486 115.578 30.7628 116.407 31.5572L116.414 31.5635L189.11 100.33C189.111 100.331 189.111 100.331 189.111 100.331C189.615 100.808 190.03 101.41 190.317 102.1C190.604 102.791 190.754 103.547 190.753 104.317V104.319V191.773C190.75 193.193 190.237 194.527 189.364 195.491C188.496 196.449 187.352 196.957 186.194 196.959H153.889C151.514 196.959 149.327 194.771 149.327 191.776V158.346V158.345C149.324 152.673 147.283 147.209 143.613 143.158C139.939 139.101 134.923 136.788 129.656 136.782H129.655L97.3463 136.782Z" fill="#C84ECE" stroke="#C84ECE" stroke-width="3"/>
</svg>
