<svg width="227" height="228" viewBox="0 0 227 228" fill="none" xmlns="http://www.w3.org/2000/svg">
<path d="M113.5 22.6875C62.8162 22.6875 21.7227 63.781 21.7227 114.465C21.7227 165.15 62.8162 206.243 113.5 206.243C164.185 206.243 205.278 165.15 205.278 114.465C205.278 63.781 164.185 22.6875 113.5 22.6875ZM159.389 122.113H121.149V160.354C121.149 164.584 117.722 168.002 113.5 168.002C109.279 168.002 105.852 164.584 105.852 160.354V122.113H67.6116C63.3898 122.113 59.9634 118.695 59.9634 114.465C59.9634 110.236 63.3898 106.817 67.6116 106.817H105.852V68.5764C105.852 64.347 109.279 60.9283 113.5 60.9283C117.722 60.9283 121.149 64.347 121.149 68.5764V106.817H159.389C163.611 106.817 167.038 110.236 167.038 114.465C167.038 118.695 163.611 122.113 159.389 122.113Z" fill="white"/>
</svg>
