<svg width="227" height="228" viewBox="0 0 227 228" fill="none" xmlns="http://www.w3.org/2000/svg">
<path d="M42.6778 123.768C42.6778 90.2418 69.8561 63.0635 103.382 63.0635M42.6778 123.768C42.6778 140.446 49.4031 155.552 60.2896 166.524C61.3396 167.582 61.8645 168.111 62.1744 168.62C62.4701 169.105 62.6422 169.523 62.7742 170.077C62.9126 170.655 62.9126 171.315 62.9126 172.633V196.614C62.9126 199.446 62.9126 200.863 63.464 201.945C63.949 202.898 64.7228 203.671 65.6747 204.156C66.7568 204.708 68.1734 204.708 71.0066 204.708H90.2297C93.0629 204.708 94.4797 204.708 95.5613 204.156C96.5133 203.671 97.2873 202.898 97.7719 201.945C98.3233 200.863 98.3233 199.446 98.3233 196.614V192.567C98.3233 189.734 98.3233 188.317 98.8747 187.235C99.3604 186.283 100.134 185.509 101.085 185.024C102.168 184.473 103.584 184.473 106.417 184.473H120.582C123.416 184.473 124.832 184.473 125.914 185.024C126.866 185.509 127.64 186.283 128.124 187.235C128.676 188.317 128.676 189.734 128.676 192.567V196.614C128.676 199.446 128.676 200.863 129.227 201.945C129.713 202.898 130.487 203.671 131.438 204.156C132.52 204.708 133.937 204.708 136.77 204.708H155.994C158.827 204.708 160.243 204.708 161.326 204.156C162.278 203.671 163.052 202.898 163.536 201.945C164.088 200.863 164.088 199.446 164.088 196.614V186.742C164.088 184.698 164.088 183.675 164.379 182.855C164.657 182.069 165.009 181.518 165.605 180.934C166.226 180.325 167.28 179.836 169.386 178.857C179.323 174.244 187.803 167.021 193.945 158.068C195.026 156.494 195.565 155.707 196.143 155.241C196.694 154.796 197.189 154.536 197.867 154.333C198.577 154.12 199.42 154.12 201.104 154.12H206.581C209.414 154.12 210.83 154.12 211.913 153.569C212.865 153.084 213.639 152.31 214.123 151.358C214.675 150.276 214.675 148.859 214.675 146.026V111.482C214.675 108.786 214.675 107.438 214.174 106.396C213.676 105.364 212.844 104.532 211.812 104.034C210.77 103.533 209.422 103.533 206.726 103.533C204.773 103.533 203.797 103.533 203.01 103.268C202.163 102.983 201.568 102.602 200.953 101.953C200.383 101.35 199.917 100.342 198.986 98.3278C195.996 91.8599 191.902 86.0075 186.946 81.0122C185.896 79.954 185.371 79.425 185.061 78.9162C184.765 78.4307 184.593 78.0129 184.461 77.46C184.323 76.8806 184.323 76.2213 184.323 74.9027V63.6764C184.323 60.0336 184.323 58.2123 183.564 56.9881C182.899 55.9156 181.858 55.1302 180.645 54.7858C179.259 54.3927 177.507 54.8931 174.005 55.8939L150.001 62.7521C149.592 62.8686 149.389 62.9269 149.182 62.9678C148.997 63.0042 148.811 63.0302 148.624 63.0459C148.414 63.0635 148.2 63.0635 147.772 63.0635H103.382M42.6778 123.768H32.561C21.3856 123.768 12.3262 114.709 12.3262 103.533C12.3262 96.0433 16.3954 89.5041 22.4436 86.0054M103.382 63.0635H143.495C143.73 61.4113 143.853 59.7223 143.853 58.0048C143.853 38.4478 127.999 22.5938 108.442 22.5938C88.8848 22.5938 73.0308 38.4478 73.0308 58.0048C73.0308 62.2258 73.7693 66.2743 75.1243 70.0282C83.5644 65.5808 93.179 63.0635 103.382 63.0635Z" stroke="#C84ECE" stroke-width="18" stroke-linecap="round" stroke-linejoin="round"/>
</svg>
