<svg width="379" height="176" viewBox="0 0 379 176" fill="none" xmlns="http://www.w3.org/2000/svg">
<g clip-path="url(#clip0_1609_1601)">
<path d="M87.7304 120.014H69.4985V87.0913L39.3306 32.9204H60.5793L78.9423 68.3348L95.8626 32.9204H116.849L87.7304 87.3537V120.014Z" fill="#FFF8FC"/>
<path d="M164.572 86.0763H190.936C190.673 76.5013 184.377 71.9105 177.688 71.9105C170.868 71.9105 165.227 77.1571 164.572 86.0763ZM208.512 96.8318H164.047C164.572 106.538 170.081 112.834 178.475 112.834C183.984 112.834 188.837 110.079 190.018 105.62H207.594C203.659 118.867 193.034 126.344 179.262 126.344C157.751 126.344 146.996 114.539 146.996 91.1917C146.996 71.2547 158.407 58.4005 178.213 58.4005C198.019 58.4005 208.512 71.2547 208.512 96.8318ZM231.456 124.639H214.405V36.496H231.456V124.639ZM270.356 112.047C280.718 112.047 285.964 105.489 285.964 92.3722C285.964 79.2557 280.718 72.8286 270.356 72.8286C259.994 72.8286 254.747 79.2557 254.747 92.3722C254.747 105.489 259.994 112.047 270.356 112.047ZM270.356 126.344C249.501 126.344 237.171 112.44 237.171 92.3722C237.171 71.9105 249.894 58.4005 270.356 58.4005C290.555 58.4005 303.147 71.7793 303.147 92.3722C303.147 112.834 290.424 126.344 270.356 126.344Z" fill="#FFF8FC"/>
<path d="M326.061 24.1626V133.118L310.308 118.969V39.1858L326.061 24.1626ZM310.746 144.494H326.353V163.164H310.746V144.494Z" fill="#C84ECE"/>
<path d="M137.755 149.74V40.7848L122.003 54.9329V134.717L137.755 149.74ZM122.44 29.408H138.047V10.7383H122.44V29.408Z" fill="#FFF8FC"/>
<rect x="122.381" y="10.5742" width="15.6934" height="18.9727" fill="#C84ECE"/>
</g>
<defs>
<clipPath id="clip0_1609_1601">
<rect width="379" height="176" fill="white"/>
</clipPath>
</defs>
</svg>
